<svg id="logo-2" xmlns="http://www.w3.org/2000/svg" width="337" height="61" viewBox="0 0 337 61">
  <defs>
    <style>
      .cls-1 {
        fill: #000000;
      }
    </style>
  </defs>
  <path id="TTM" class="cls-1" d="M173.373,8.033v45.49a2.784,2.784,0,0,0,2.066,2.846q2.066,0.717,2.066,2.272,0,1.678-1.882,1.679H161.755q-1.882,0-1.882-1.679,0-1.556,2.045-2.272a2.781,2.781,0,0,0,2.046-2.846V14.216L142.077,61.548H139.09l-21.641-45.49V53.523a2.78,2.78,0,0,0,2.045,2.846q2.046,0.717,2.046,2.272,0,1.678-1.882,1.679H109.267q-1.882,0-1.882-1.679,0-1.556,2.046-2.272a2.781,2.781,0,0,0,2.045-2.846V8.033a2.79,2.79,0,0,0-2.045-2.825q-2.047-.737-2.046-2.334,0-1.678,1.882-1.679h11.577l21.683,44.466L163.514,1.2h12.109q1.881,0,1.882,1.679,0,1.6-2.066,2.334A2.792,2.792,0,0,0,173.373,8.033Zm-71.711,6.183q-0.941,0-2.454-2.047a44.652,44.652,0,0,0-3.355-4.156A4.338,4.338,0,0,0,92.58,6.641H83.335V53.523a2.815,2.815,0,0,0,2.046,2.866q2.045,0.737,2.046,2.293,0,1.637-1.841,1.638H71.716q-1.882,0-1.882-1.638,0-1.556,2.046-2.293a2.815,2.815,0,0,0,2.045-2.866V6.641H64.516A4.47,4.47,0,0,0,61.2,8.013a37.05,37.05,0,0,0-3.355,4.156q-1.432,2.048-2.414,2.047-1.882,0-1.882-1.679V4.962q0-2.62,1.1-3.3t4.582-.676H97.858q3.764,0,4.725.635t0.961,3.337v7.575Q103.544,14.217,101.662,14.216Zm-52.574,0q-0.942,0-2.455-2.047a44.652,44.652,0,0,0-3.355-4.156,4.339,4.339,0,0,0-3.273-1.372H30.76V53.523a2.815,2.815,0,0,0,2.046,2.866q2.045,0.737,2.045,2.293,0,1.637-1.841,1.638H19.142q-1.882,0-1.882-1.638,0-1.556,2.046-2.293a2.815,2.815,0,0,0,2.046-2.866V6.641H11.942A4.47,4.47,0,0,0,8.628,8.013a37.043,37.043,0,0,0-3.355,4.156q-1.432,2.048-2.414,2.047-1.882,0-1.882-1.679V4.962q0-2.62,1.1-3.3t4.582-.676H45.283q3.763,0,4.725.635T50.97,4.962v7.575Q50.97,14.217,49.088,14.216Z" transform="translate(-0.969 -1)"/>
  <path id="bakery" class="cls-1" d="M336.841,29.515a21.117,21.117,0,0,1-1.085,2.555L324.6,56.989q-0.7,1.492-1.243,2.51a2.121,2.121,0,0,1-1.9,1.221h-0.091l-1.852-.068a0.905,0.905,0,0,1-.927-0.882l-0.158-3.007,1.717-.045a1.793,1.793,0,0,0,1.649-1.04l3.525-7.326c0.045,0,.068-0.015.068-0.045a0.522,0.522,0,0,0-.158-0.271,1.224,1.224,0,0,1-.249-0.464c-0.075-.218-0.128-0.365-0.158-0.441l-7.388-17.615a2.554,2.554,0,0,0-.926-1.131,7.154,7.154,0,0,0-1.22-.622,1.417,1.417,0,0,1-.881-0.78,0.9,0.9,0,0,1-.091-0.362q0-.655.859-0.656h7.41a1.113,1.113,0,0,1,1.13.7,0.676,0.676,0,0,1,.09.339,0.95,0.95,0,0,1-.655.837,0.916,0.916,0,0,0-.452.543,1.007,1.007,0,0,0-.045.317,0.954,0.954,0,0,0,.113.43l5.377,13.16L332.8,31.12a1.935,1.935,0,0,0,.181-0.791,1.981,1.981,0,0,0-.542-1.289l-0.994-1.2,2.349-1.832a0.86,0.86,0,0,1,.656-0.294,1.1,1.1,0,0,1,.79.362l1.266,1.289a1.767,1.767,0,0,1,.5,1.266A2.968,2.968,0,0,1,336.841,29.515ZM311.22,32.341q-0.882-3.3-2.937-3.3a3.912,3.912,0,0,0-.429.023,2.479,2.479,0,0,0-2.034,1.549,8.639,8.639,0,0,0-.723,3.4V44.168a1.535,1.535,0,0,0,1.119,1.572,1.365,1.365,0,0,1,1.118,1.255,0.861,0.861,0,0,1-1.017.927h-7.659a0.872,0.872,0,0,1-1.039-.927,1.369,1.369,0,0,1,1.129-1.255,1.536,1.536,0,0,0,1.13-1.572V29.7a1.527,1.527,0,0,0-1.13-1.538,1.4,1.4,0,0,1-1.129-1.289,0.862,0.862,0,0,1,1.017-.927,13.078,13.078,0,0,0,2.812-.452q1.413-.384,3.649-1.131V27.3l2.35-.882q1.74-.655,2.734-0.995a3.369,3.369,0,0,1,.9-0.113,9.062,9.062,0,0,1,2.712.61l-0.565,6.422H311.22Zm-18.1,4.726H279.3a9.115,9.115,0,0,0,1.751,5.371,6.747,6.747,0,0,0,4.168,2.77,6.84,6.84,0,0,0,1.469.158,8.6,8.6,0,0,0,4.134-1.176,5.381,5.381,0,0,1,2.056-.769,1.041,1.041,0,0,1,.588.181,0.718,0.718,0,0,1,.226.52,2.207,2.207,0,0,1-.339,1,3.563,3.563,0,0,1-.486.814q-0.192.2-.35,0.362a10.515,10.515,0,0,1-7.117,2.284q-6.236-.046-9.331-3.98a11.177,11.177,0,0,1-2.395-7.145,16.6,16.6,0,0,1,.2-2.533,11.547,11.547,0,0,1,3.5-6.965,10.741,10.741,0,0,1,7.5-2.691h0.091q4.722,0,7.252,2.714a10,10,0,0,1,2.463,6.987q-0.023.927-.091,1.515T293.123,37.067Zm-4.248-6.987q-1.039-1.922-3.863-1.922h-0.249a4.658,4.658,0,0,0-4.1,2.137,8.389,8.389,0,0,0-1.345,4.217h10.755A9.256,9.256,0,0,0,288.875,30.08ZM270.778,47.2a6.039,6.039,0,0,1-2.463.588,3.819,3.819,0,0,1-1.491-.294,8.663,8.663,0,0,1-2.869-1.9l-8.179-7.959a0.329,0.329,0,0,0,.091-0.113,0.962,0.962,0,0,0-.2.136v6.512a1.536,1.536,0,0,0,1.13,1.572,1.37,1.37,0,0,1,1.13,1.255,0.861,0.861,0,0,1-1.017.927h-7.659a0.872,0.872,0,0,1-1.039-.927,1.369,1.369,0,0,1,1.129-1.255,1.536,1.536,0,0,0,1.13-1.572V19.045a1.541,1.541,0,0,0-1.13-1.56,1.4,1.4,0,0,1-1.129-1.289,0.861,0.861,0,0,1,1.016-.927,13.545,13.545,0,0,0,2.813-.441q1.412-.373,3.626-1.119V33.924l7.027-5.63a26.1,26.1,0,0,1,2.508-1.832,2.938,2.938,0,0,1,1.491-.452,2.3,2.3,0,0,1,1.107.294l1.694,1.04a0.949,0.949,0,0,1,.5.769,0.707,0.707,0,0,1-.113.384l-1.287,2.894-1.717-.882a2.288,2.288,0,0,0-1.017-.271,1.769,1.769,0,0,0-1.062.384q-3.276,2.442-5.4,4.116l7.524,7.349a18.346,18.346,0,0,0,3,2.6,1.931,1.931,0,0,0,.79.181,2.7,2.7,0,0,0,.339-0.023,1.646,1.646,0,0,1,.475-0.068,1.164,1.164,0,0,1,1.152.656,1.347,1.347,0,0,1,.068.362,0.756,0.756,0,0,1-.52.724Zm-26.524.724h-5.49a0.762,0.762,0,0,1-.949-0.746V46.2l-5.423,1.99a4.429,4.429,0,0,1-1.423.294H230.02a8.49,8.49,0,0,1-5.919-2.759,10.384,10.384,0,0,1-2.8-6.354q-0.09-.95-0.09-1.854a16.715,16.715,0,0,1,.158-2.329,10.18,10.18,0,0,1,1.559-4,7.955,7.955,0,0,1,2.124-2.216,7.507,7.507,0,0,1,1.242-.678q1.83-.678,3.649-1.357t3.649-1.357a2.774,2.774,0,0,1,.949-0.181h0.135a14.511,14.511,0,0,1,3.706.769,0.833,0.833,0,0,1,.271.113q0.451,0.181,1.152.407a0.964,0.964,0,0,0,.339.068,0.368,0.368,0,0,0,.226-0.068,3.477,3.477,0,0,0,.587-0.588,0.944,0.944,0,0,1,.791-0.384,1.1,1.1,0,0,1,.452.09,0.992,0.992,0,0,1,.836.859v17.5a1.535,1.535,0,0,0,1.129,1.572,1.37,1.37,0,0,1,1.13,1.255A0.873,0.873,0,0,1,244.254,47.921Zm-6.439-17.683a8.6,8.6,0,0,0-2.135-1.357,6.51,6.51,0,0,0-2.452-.724h-0.067a1.932,1.932,0,0,0-.678.136q-0.813.294-1.616,0.6t-1.615.6a1.914,1.914,0,0,0-.678.452,7.2,7.2,0,0,0-1.762,3.414,13.2,13.2,0,0,0-.384,3.121q0,0.475.045,1a9.638,9.638,0,0,0,1.694,5.088,6.229,6.229,0,0,0,3.48,2.533,5.487,5.487,0,0,0,1.559.226c0.165,0,.331-0.007.5-0.023a5.125,5.125,0,0,0,1.016-.249q0.521-.181,1.627-0.6l1.469-.554V30.238ZM217.842,42.721a8.528,8.528,0,0,1-2.123,2.216,5.459,5.459,0,0,1-1.311.7q-1.807.656-3.615,1.334t-3.637,1.334a2.974,2.974,0,0,1-.972.181h-0.113a15.529,15.529,0,0,1-3.682-.724,1.939,1.939,0,0,1-.294-0.136q-0.453-.181-1.152-0.407a1.168,1.168,0,0,0-.362-0.068,0.247,0.247,0,0,0-.181.068,6.632,6.632,0,0,0-.61.565,0.884,0.884,0,0,1-.768.384,1.1,1.1,0,0,1-.452-0.09,0.992,0.992,0,0,1-.836-0.859V19.045a1.54,1.54,0,0,0-1.129-1.56,1.4,1.4,0,0,1-1.13-1.289,0.861,0.861,0,0,1,1.017-.927,13.555,13.555,0,0,0,2.813-.441q1.411-.373,3.649-1.119v14l5.422-2.012a5.139,5.139,0,0,1,1.378-.317q0.249,0,.486.011c0.158,0.008.327,0.011,0.508,0.011a8.5,8.5,0,0,1,5.942,2.8,10.674,10.674,0,0,1,2.757,6.331q0.09,0.95.09,1.877a16.863,16.863,0,0,1-.158,2.329A10.189,10.189,0,0,1,217.842,42.721ZM214.3,36.434a9.724,9.724,0,0,0-1.649-5.043,6.669,6.669,0,0,0-3.525-2.578,6.305,6.305,0,0,0-1.649-.226,3.938,3.938,0,0,0-.429.023,4.719,4.719,0,0,0-1.017.249q-0.519.2-1.627,0.611t-1.445.543V43.67a7.761,7.761,0,0,0,2.1,1.379,6.091,6.091,0,0,0,2.462.7h0.136a1.8,1.8,0,0,0,.61-0.136q0.858-.316,1.649-0.6t1.6-.6a1.909,1.909,0,0,0,.678-0.452,7.319,7.319,0,0,0,1.762-3.392,14.88,14.88,0,0,0,.362-3.234Q214.318,36.864,214.3,36.434Z" transform="translate(-0.969 -1)"/>
</svg>
